<svg id="Layer_1" data-name="Layer 1" xmlns="http://www.w3.org/2000/svg" viewBox="0 0 500 505"><defs><style>.cls-1,.cls-9{fill:none;stroke-miterlimit:10;stroke-width:1.36px;}.cls-1{stroke:#fff;}.cls-2{fill:#6b676e;}.cls-3{fill:#585661;}.cls-4{fill:#ffd750;}.cls-5{fill:#ffebd2;}.cls-6{fill:#ffdeb7;}.cls-7,.cls-8{fill:#fff;}.cls-8{font-size:33.98px;font-family:ArialMT, Arial;}.cls-9{stroke:red;}</style></defs><title>1back_diagram</title><rect width="500" height="500"/><rect class="cls-1" x="55.57" y="89.86" width="172.56" height="172.56"/><rect class="cls-1" x="270.35" y="89.86" width="172.56" height="172.56"/><path class="cls-2" d="M353.51,143.13a2,2,0,0,1-1.7-.91,10.51,10.51,0,0,0-7-4.94c-6.1-1.13-12.55,3.38-12.61,3.43a2,2,0,0,1-2.37-3.32c.32-.23,7.89-5.56,15.7-4.12a14.57,14.57,0,0,1,9.64,6.69,2,2,0,0,1-1.7,3.17Z"/><path class="cls-2" d="M361.68,143.13a2,2,0,0,0,1.7-.91,10.51,10.51,0,0,1,7-4.94c6.1-1.13,12.55,3.38,12.61,3.43a2,2,0,0,0,2.37-3.32c-.32-.23-7.89-5.56-15.7-4.12A14.57,14.57,0,0,0,360,140a2,2,0,0,0,1.7,3.17Z"/><path class="cls-3" d="M371.88,151.3c0-6.77-6.4-12.25-14.29-12.25s-14.29,5.48-14.29,12.25"/><ellipse class="cls-4" cx="357.59" cy="196.21" rx="26.54" ry="32.66"/><path class="cls-2" d="M334.46,180.24a37.63,37.63,0,0,0-3,10.73c4.16,1.9,11.91,4.47,26.17,4.47s22-2.58,26.17-4.47a37.63,37.63,0,0,0-3-10.73c-4.87,1.47-12.17,2.84-23.14,2.84S339.33,181.71,334.46,180.24Z"/><path class="cls-2" d="M331.31,200.49a36.88,36.88,0,0,0,5,15.23c4.6,1.56,11.35,2.94,21.25,2.94s16.65-1.39,21.25-2.95a36.89,36.89,0,0,0,5-15.23c-4.65,2-12.64,4.38-26.29,4.38S336,202.51,331.31,200.49Z"/><path class="cls-3" d="M374.95,162.53c0,7.33-3.51,13.27-17.35,13.27s-17.35-5.94-17.35-13.27,3.51-13.27,17.35-13.27S374.95,155.2,374.95,162.53Z"/><path class="cls-2" d="M376,157.42c0,5.64-3.72,10.21-18.37,10.21s-18.37-4.57-18.37-10.21,3.72-10.21,18.37-10.21S376,151.79,376,157.42Z"/><path class="cls-5" d="M410.67,181.92c-32.41-30.11-38.88-32-38.88-32,4.76,5.61,2.93,10.13,2.14,13.65-4.08,18,3.57,29.09,8.17,32.66,9.83,7.64,38.79,17.1,38.79,10.21C420.88,195.7,416.62,187.45,410.67,181.92Z"/><path class="cls-6" d="M413.85,185.41a31.46,31.46,0,0,0-3.18-3.49l-1.92-1.78c-6.62-1.43-15.52-3.35-20.11-4.3-5.16-5.62-11.44-11.93-14.16-14.63-.12.55-.26,1.08-.39,1.59-.06.24-.13.52-.18.74-.19.82-.32,1.62-.46,2.41,7.8,7.83,17.66,18.18,19.05,21a121.18,121.18,0,0,1,5,17.27h0c1.48.57,3,1.1,4.44,1.59h0c-1.33-7.71-4.89-18.8-5.84-20.69a26.44,26.44,0,0,0-3-4.13c7.5,1.58,16.23,3.48,20.53,4.42Z"/><path class="cls-5" d="M304.42,181.92c32.41-30.11,38.88-32,38.88-32-4.76,5.61-2.93,10.13-2.14,13.65,4.08,18-3.57,29.09-8.17,32.66-9.83,7.64-38.79,17.1-38.79,10.21C294.21,195.7,298.47,187.45,304.42,181.92Z"/><path class="cls-6" d="M301.24,185.41a31.46,31.46,0,0,1,3.18-3.49l1.92-1.78c6.62-1.43,15.52-3.35,20.11-4.3,5.16-5.62,11.44-11.93,14.16-14.63.12.55.26,1.08.39,1.59.06.24.13.52.18.74.19.82.32,1.62.46,2.41-7.8,7.83-17.66,18.18-19.05,21a121.19,121.19,0,0,0-5,17.27h0c-1.48.57-3,1.1-4.44,1.59h0c1.33-7.71,4.89-18.8,5.84-20.69a26.44,26.44,0,0,1,3-4.13c-7.5,1.58-16.23,3.48-20.53,4.42Z"/><line class="cls-1" x1="55.57" y1="39.58" x2="434.71" y2="39.58"/><path class="cls-7" d="M442.91,39.58A41.07,41.07,0,0,0,431.29,46l2.34-6.46-2.34-6.46A41,41,0,0,0,442.91,39.58Z"/><text class="cls-8" transform="translate(343.69 29.16)">time</text><line class="cls-9" x1="141.87" y1="401.1" x2="141.87" y2="441.87"/><line class="cls-9" x1="141.87" y1="442.55" x2="359.32" y2="442.55"/><line class="cls-9" x1="359.32" y1="401.78" x2="359.32" y2="442.55"/><line class="cls-1" x1="141.19" y1="339.94" x2="141.78" y2="283.58"/><path class="cls-7" d="M141.87,275.38a41.07,41.07,0,0,0,6.34,11.68l-6.44-2.41-6.49,2.27A41,41,0,0,0,141.87,275.38Z"/><text class="cls-8" transform="translate(90.9 378.44)">1-back</text><text class="cls-8" transform="translate(307 378.44)">current</text><line class="cls-1" x1="358.64" y1="342.66" x2="359.24" y2="286.3"/><path class="cls-7" d="M359.32,278.1a41.07,41.07,0,0,0,6.34,11.68l-6.44-2.41-6.49,2.27A41,41,0,0,0,359.32,278.1Z"/><text class="cls-8" transform="translate(201.44 493.97)">match!</text><path class="cls-2" d="M137.51,143.13a2,2,0,0,1-1.7-.91,10.51,10.51,0,0,0-7-4.94c-6.1-1.13-12.55,3.38-12.61,3.43a2,2,0,0,1-2.37-3.32c.32-.23,7.89-5.56,15.7-4.12a14.57,14.57,0,0,1,9.64,6.69,2,2,0,0,1-1.7,3.17Z"/><path class="cls-2" d="M145.68,143.13a2,2,0,0,0,1.7-.91,10.51,10.51,0,0,1,7-4.94c6.1-1.13,12.55,3.38,12.61,3.43a2,2,0,0,0,2.37-3.32c-.32-.23-7.89-5.56-15.7-4.12A14.57,14.57,0,0,0,144,140a2,2,0,0,0,1.7,3.17Z"/><path class="cls-3" d="M155.88,151.3c0-6.77-6.4-12.25-14.29-12.25s-14.29,5.48-14.29,12.25"/><ellipse class="cls-4" cx="141.59" cy="196.21" rx="26.54" ry="32.66"/><path class="cls-2" d="M118.46,180.24a37.63,37.63,0,0,0-3,10.73c4.16,1.9,11.91,4.47,26.17,4.47s22-2.58,26.17-4.47a37.63,37.63,0,0,0-3-10.73c-4.87,1.47-12.17,2.84-23.14,2.84S123.33,181.71,118.46,180.24Z"/><path class="cls-2" d="M115.31,200.49a36.88,36.88,0,0,0,5,15.23c4.6,1.56,11.35,2.94,21.25,2.94s16.65-1.39,21.25-2.95a36.89,36.89,0,0,0,5-15.23c-4.65,2-12.64,4.38-26.29,4.38S120,202.51,115.31,200.49Z"/><path class="cls-3" d="M158.95,162.53c0,7.33-3.51,13.27-17.35,13.27s-17.35-5.94-17.35-13.27,3.51-13.27,17.35-13.27S158.95,155.2,158.95,162.53Z"/><path class="cls-2" d="M160,157.42c0,5.64-3.72,10.21-18.37,10.21s-18.37-4.57-18.37-10.21,3.72-10.21,18.37-10.21S160,151.79,160,157.42Z"/><path class="cls-5" d="M194.67,181.92c-32.41-30.11-38.88-32-38.88-32,4.76,5.61,2.93,10.13,2.14,13.65-4.08,18,3.57,29.09,8.17,32.66,9.83,7.64,38.79,17.1,38.79,10.21C204.88,195.7,200.62,187.45,194.67,181.92Z"/><path class="cls-6" d="M197.85,185.41a31.46,31.46,0,0,0-3.18-3.49l-1.92-1.78c-6.62-1.43-15.52-3.35-20.11-4.3-5.16-5.62-11.44-11.93-14.16-14.63-.12.55-.26,1.08-.39,1.59-.06.24-.13.52-.18.74-.19.82-.32,1.62-.46,2.41,7.8,7.83,17.66,18.18,19.05,21a121.18,121.18,0,0,1,5,17.27h0c1.48.57,3,1.1,4.44,1.59h0c-1.33-7.71-4.89-18.8-5.84-20.69a26.44,26.44,0,0,0-3-4.13c7.5,1.58,16.23,3.48,20.53,4.42Z"/><path class="cls-5" d="M88.42,181.92c32.41-30.11,38.88-32,38.88-32-4.76,5.61-2.93,10.13-2.14,13.65,4.08,18-3.57,29.09-8.17,32.66-9.83,7.64-38.79,17.1-38.79,10.21C78.21,195.7,82.47,187.45,88.42,181.92Z"/><path class="cls-6" d="M85.24,185.41a31.46,31.46,0,0,1,3.18-3.49l1.92-1.78c6.62-1.43,15.52-3.35,20.11-4.3,5.16-5.62,11.44-11.93,14.16-14.63.12.55.26,1.08.39,1.59.06.24.13.52.18.74.19.82.32,1.62.46,2.41-7.8,7.83-17.66,18.18-19.05,21a121.19,121.19,0,0,0-5,17.27h0c-1.48.57-3,1.1-4.44,1.59h0c1.33-7.71,4.89-18.8,5.84-20.69a26.44,26.44,0,0,1,3-4.13c-7.5,1.58-16.23,3.48-20.53,4.42Z"/></svg>