<?xml version="1.0" encoding="iso-8859-1"?>
<!-- Generator: Adobe Illustrator 19.0.0, SVG Export Plug-In . SVG Version: 6.00 Build 0)  -->
<svg version="1.1" id="Layer_1" xmlns="http://www.w3.org/2000/svg" xmlns:xlink="http://www.w3.org/1999/xlink" x="0px" y="0px"
	 viewBox="0 0 511.997 511.997" style="enable-background:new 0 0 511.997 511.997;" xml:space="preserve">
<path style="fill:#6B676E;" d="M329.386,86.152c2.031-4.077,0.37-9.032-3.715-11.062c-4.077-2.039-9.032-0.363-11.062,3.715
	L259.17,190.207c-1.028-0.3-2.086-0.48-3.173-0.48c-1.087,0-2.145,0.179-3.173,0.48L197.387,78.805
	c-2.031-4.077-6.993-5.752-11.062-3.715c-4.085,2.031-5.744,6.985-3.715,11.062L240.36,202.2c0.246,0.495,0.588,0.902,0.913,1.323
	c-1.099,3.315-1.775,10.365-1.775,14.319h33c0-3.954-0.675-11.003-1.775-14.319c0.325-0.421,0.666-0.828,0.913-1.323L329.386,86.152
	z"/>
<path style="fill:#FFAA64;" d="M264.248,305.776v-66c0,0,74.25-156.749,197.999-156.749c0,0,81.823,121.679-57.75,148.499
	c0,0,131.999,82.5-8.25,189.749c0,0-57.75,24.75-74.25,8.25C305.498,413.025,264.248,305.776,264.248,305.776z"/>
<g>
	<polygon style="fill:#FFC878;" points="272.498,289.276 354.998,429.525 330.248,437.775 297.248,396.525 264.248,297.526 	"/>
	<polygon style="fill:#FFC878;" points="445.747,215.026 437.497,190.276 338.498,190.276 280.748,239.776 280.748,248.026 
		330.248,239.776 379.748,223.276 	"/>
</g>
<g>
	<path style="fill:#FF9155;" d="M297.248,215.026c0,0,90.75-66,164.999-82.5l-8.25-33l-82.5,8.25l-82.5,99L297.248,215.026z"/>
	<path style="fill:#FF9155;" d="M272.498,264.526v-16.5c0,0,82.5-24.75,123.749-16.5c41.25,8.25,66,66,49.5,66
		C429.247,297.526,272.498,264.526,272.498,264.526z"/>
</g>
<path style="fill:#464655;" d="M255.998,310.249c15.299,50.368,44.651,132.743,73.548,135.195c4.471,0.378,8.863,0.572,13.172,0.572
	c44.504,0,80.518-20.303,109.771-61.786c18.603-26.377,24.234-59.063,15.445-89.686c-7.154-24.918-23.327-46.329-46.449-62.368
	c0.613,0.004,1.246,0.035,1.855,0.035c20.94,0,40.409-2.487,55.406-17.733c20.684-21.027,30.672-93.771,33-115.5
	c1.547-14.437-3.094-33-41.25-33c-126.843,0-214.499,169.672-214.499,182.047c0,0,10.571,5.287,30.226,5.287
	c15.064,0,35.467-3.108,60.524-14.085c12.676-5.553,26.188-7.212,39.8-7.534c0.121,0.058,0.197,0.166,0.323,0.219
	c9.148,3.839,17.441,8.454,24.952,13.642c-46.468-1.307-64.643,12.011-70.494,18.173c-42.689-6.664-74.049-5.489-76.402-5.382
	l-8.926,0.387L255.998,310.249L255.998,310.249z M393.551,128.088c-2.489,8.081-6.508,17.011-12.873,26.18
	c-36.517,15.867-64.215,34.782-83.226,50.302c18.264-27.82,45.694-62.478,79.874-87.759
	C385.402,110.84,396.507,118.49,393.551,128.088z M441.571,133.737c-12.929,3.187-25.139,6.882-36.617,10.953
	c3.207-7.303,5.316-14.279,6.665-20.668c1.194-5.658,6.316-9.828,12.1-9.737c7.715,0.122,13.949,1.475,18.97,3.475
	C450.312,120.798,449.539,131.774,441.571,133.737z M463.158,187.72c-29.629-11.024-63.105-13.001-88.324-12.32
	c21.654-10.482,46.95-20.019,75.837-26.799c18.254-4.285,34.093,13.589,28.023,31.329c-0.053,0.153-0.105,0.306-0.158,0.459
	C476.348,186.724,469.44,190.057,463.158,187.72z M408.51,215.43c-5.398-0.151-10.84-0.301-16.283-0.301
	c-15.619,0-34.023,1.067-52.099,8.986c-19.104,8.37-37.118,12.619-53.56,12.676c9.322-9.341,27.13-25.445,53.292-41.977
	c6.833-1.002,45.963-6.148,85.494,0.184c12.559,2.01,11.224,20.688-1.494,20.714c-0.172,0-0.344,0.001-0.518,0.001
	C418.467,215.712,413.509,215.571,408.51,215.43z M431.245,287.974c-22.629-9.114-45.211-15.469-66.121-19.88
	c9.809-3.86,26.603-7.385,54.093-5.685c9.031,0.558,17.193,5.603,22.071,13.223c0.069,0.108,0.138,0.218,0.207,0.326
	C445.812,282.764,438.72,290.986,431.245,287.974z M425.138,340.173c-12.539-12.969-26.071-29.921-33.162-48.184
	c17.69,5.143,35.876,11.816,53.641,20.455c6.178,3.005,10.067,9.533,9.622,16.388c-0.024,0.37-0.051,0.74-0.079,1.11
	C454.009,344.712,435.436,350.824,425.138,340.173z M396.919,388.231c-29.047-45.379-79.819-90.309-107.509-113.054
	c19.783,0.936,50.075,3.783,83.662,11.797c8.117,31.748,34.14,59.946,52.171,76.37c7.934,7.227,8.253,19.372,1.06,27.338
	c-0.102,0.112-0.204,0.226-0.305,0.338C417.882,399.953,403.425,398.394,396.919,388.231z M285.687,293.648
	c29.175,24.609,76.209,67.77,100.813,109.059c4.642,7.79,0.656,17.851-7.908,20.829c-0.09,0.032-0.18,0.064-0.27,0.095
	c-6.338,2.185-13.362-0.461-16.862-6.179L285.687,293.648z M270.175,299.91l69.905,114.215c4.134,6.756-1.05,15.555-8.942,14.9
	c-0.063-0.006-0.127-0.011-0.19-0.017C316.643,427.791,289.664,364.762,270.175,299.91z"/>
<path style="fill:#FFAA64;" d="M247.748,305.776v-66c0,0-74.25-156.749-197.999-156.749c0,0-81.823,121.679,57.75,148.499
	c0,0-131.999,82.5,8.25,189.749c0,0,57.75,24.75,74.25,8.25C206.498,413.025,247.748,305.776,247.748,305.776z"/>
<g>
	<polygon style="fill:#FFC878;" points="239.498,289.276 156.998,429.525 181.748,437.775 214.748,396.525 247.748,297.526 	"/>
	<polygon style="fill:#FFC878;" points="66.25,215.026 74.5,190.276 173.498,190.276 231.248,239.776 231.248,248.026 
		181.748,239.776 132.249,223.276 	"/>
</g>
<g>
	<path style="fill:#FF9155;" d="M214.748,215.026c0,0-90.75-66-164.999-82.5l8.25-33l82.5,8.25l82.5,99L214.748,215.026z"/>
	<path style="fill:#FF9155;" d="M239.498,264.526v-16.5c0,0-82.5-24.75-123.749-16.5c-41.25,8.25-66,66-49.5,66
		S239.498,264.526,239.498,264.526z"/>
</g>
<path style="fill:#464655;" d="M255.998,258.733l-8.926-0.387c-2.353-0.107-33.712-1.282-76.402,5.382
	c-5.851-6.162-24.026-19.479-70.494-18.173c7.511-5.188,15.804-9.804,24.952-13.642c0.125-0.053,0.201-0.161,0.323-0.219
	c13.611,0.323,27.124,1.981,39.8,7.534c25.057,10.978,45.459,14.085,60.524,14.085c19.655,0,30.226-5.287,30.226-5.287
	C256,235.652,168.344,65.98,41.501,65.98c-38.156,0-42.797,18.562-41.25,33c2.328,21.728,12.316,94.472,33,115.5
	c14.997,15.246,34.465,17.733,55.406,17.733c0.609,0,1.243-0.031,1.855-0.035c-23.123,16.04-39.296,37.45-46.449,62.368
	c-8.789,30.623-3.158,63.309,15.445,89.686c29.253,41.484,65.267,61.786,109.771,61.786c4.311,0,8.701-0.194,13.172-0.572
	c28.898-2.453,58.25-84.828,73.548-135.195v-51.517H255.998z M134.671,116.812c34.181,25.281,61.611,59.939,79.875,87.759
	c-19.012-15.521-46.709-34.436-83.227-50.302c-6.365-9.169-10.384-18.099-12.873-26.18
	C115.49,118.49,126.595,110.84,134.671,116.812z M69.309,117.76c5.021-2.001,11.256-3.354,18.97-3.475
	c5.783-0.091,10.905,4.079,12.1,9.737c1.349,6.39,3.458,13.365,6.665,20.668c-11.479-4.071-23.69-7.766-36.617-10.953
	C62.458,131.774,61.685,120.798,69.309,117.76z M33.461,180.389c-0.053-0.153-0.105-0.306-0.158-0.459
	c-6.07-17.741,9.769-35.614,28.023-31.329c28.887,6.78,54.183,16.317,75.836,26.799c-25.219-0.681-58.694,1.296-88.324,12.32
	C42.557,190.057,35.649,186.724,33.461,180.389z M88.656,215.712c-0.173,0-0.345-0.001-0.518-0.001
	c-12.718-0.026-14.053-18.704-1.494-20.714c39.532-6.332,78.661-1.185,85.494-0.184c26.162,16.532,43.969,32.636,53.292,41.977
	c-16.443-0.057-34.456-4.306-53.56-12.676c-18.076-7.919-36.479-8.986-52.099-8.986c-5.443,0-10.887,0.151-16.284,0.301
	C98.488,215.571,93.53,215.712,88.656,215.712z M70.502,275.958c0.069-0.108,0.138-0.218,0.207-0.326
	c4.878-7.621,13.04-12.665,22.071-13.223c27.49-1.699,44.284,1.825,54.093,5.685c-20.91,4.412-43.492,10.766-66.121,19.88
	C73.277,290.986,66.185,282.764,70.502,275.958z M56.838,329.941c-0.029-0.369-0.055-0.739-0.079-1.11
	c-0.445-6.854,3.443-13.382,9.622-16.388c17.765-8.639,35.951-15.312,53.641-20.455c-7.09,18.263-20.623,35.214-33.162,48.184
	C76.561,350.824,57.988,344.712,56.838,329.941z M86,391.021c-0.102-0.112-0.204-0.226-0.305-0.338
	c-7.193-7.966-6.874-20.111,1.06-27.338c18.03-16.424,44.054-44.621,52.171-76.37c33.587-8.015,63.878-10.861,83.662-11.797
	c-27.69,22.745-78.461,67.675-107.509,113.054C108.572,398.394,94.115,399.953,86,391.021z M150.538,417.452
	c-3.5,5.718-10.524,8.364-16.862,6.179c-0.09-0.031-0.18-0.063-0.27-0.095c-8.564-2.979-12.549-13.04-7.908-20.829
	c24.603-41.289,71.638-84.451,100.813-109.059L150.538,417.452z M181.048,429.01c-0.063,0.005-0.127,0.01-0.19,0.017
	c-7.892,0.655-13.076-8.145-8.942-14.9l69.905-114.215C222.333,364.762,195.354,427.791,181.048,429.01z"/>
<path style="fill:#6B676E;" d="M255.998,395.978c-4.56,0-8.25-3.69-8.25-8.25v-99c0-4.56,3.69-8.25,8.25-8.25s8.25,3.69,8.25,8.25
	v99C264.248,392.287,260.558,395.978,255.998,395.978z"/>
<path style="fill:#FF9155;" d="M255.998,396.525L255.998,396.525c-4.556,0-8.25-3.694-8.25-8.25v-24.75
	c0-4.556,3.694-8.25,8.25-8.25l0,0c4.556,0,8.25,3.694,8.25,8.25v24.75C264.248,392.831,260.555,396.525,255.998,396.525z"/>
<ellipse style="fill:#464655;" cx="255.995" cy="251.601" rx="24.75" ry="44.828"/>
<g>
</g>
<g>
</g>
<g>
</g>
<g>
</g>
<g>
</g>
<g>
</g>
<g>
</g>
<g>
</g>
<g>
</g>
<g>
</g>
<g>
</g>
<g>
</g>
<g>
</g>
<g>
</g>
<g>
</g>
</svg>
