<?xml version="1.0" encoding="iso-8859-1"?>
<!-- Generator: Adobe Illustrator 19.0.0, SVG Export Plug-In . SVG Version: 6.00 Build 0)  -->
<svg version="1.1" id="Layer_1" xmlns="http://www.w3.org/2000/svg" xmlns:xlink="http://www.w3.org/1999/xlink" x="0px" y="0px"
	 viewBox="0 0 511.998 511.998" style="enable-background:new 0 0 511.998 511.998;" xml:space="preserve">
<path id="SVGCleanerId_0" style="fill:#8A8990;" d="M418.233,97.234c-42.601-27.362-117.286-19.982-166.708-15.098
	c-5.216,0.516-10.135,1.002-14.684,1.412c-39.466,3.568-64.234,20.688-72.905,27.73c-11.339-1.974-43.267-6.394-69.107,0.925
	c-24.959,7.07-33.22,31.38-34.599,47.354c-6.547,4.169-14.648,14.816-20.756,40.765c-0.351,1.487-0.74,3.121-1.161,4.893
	c-11.27,47.324-41.211,173.032,14.795,213.877c16.074,11.722,29.275,15.496,39.609,15.496c12.429,0,20.712-5.458,24.855-9.106
	c13.053-11.494,17.321-32.382,9.514-46.563c-1.929-3.502-6.06-5.164-9.875-3.969l-16.786,5.254
	c-3.659,1.145-6.079,4.623-5.883,8.452c0.099,1.925-0.476,5.599-1.568,6.748c-0.053,0.055-0.133,0.14-0.518,0.168
	c-0.89-0.214-5.788-1.686-10.443-8.76c-14.987-22.768-6.925-68.892,0.219-97.41c12.587-3.213,42.842-12.601,54.76-30.951
	l14.486-1.62c0.64-0.072,1.252-0.22,1.836-0.424c3.227,5.622,10.12,11.945,24.735,10.6c2.985-0.275,5.545-0.59,7.746-0.93
	L200,390.585c-24.452,18.603-19.958,35.104-19.332,37.013c1.133,3.451,4.354,5.783,7.985,5.783h67.22
	c4.642,0,8.406-3.764,8.406-8.406v-80.174c3.692-8.105,7.368-17.736,10.805-27.587c19.582,5.543,36.893,7.4,51.281,7.4
	c18.629,0,32.354-3.103,39.782-5.319c4.809,6.04,8.967,10.727,11.437,13.415v60.321c-12.322,12.397-18.859,28.031-19.15,28.737
	c-1.069,2.593-0.776,5.55,0.785,7.881c1.56,2.331,4.18,3.731,6.986,3.731h74.196c2.595,0,5.043-1.198,6.635-3.246
	c1.593-2.048,2.15-4.716,1.512-7.231c-0.161-0.632-15.631-64.235,23.218-147.766C505.389,202.843,486.879,141.324,418.233,97.234z"
	/>
<g>
	<path id="SVGCleanerId_0_1_" style="fill:#8A8990;" d="M418.233,97.234c-42.601-27.362-117.286-19.982-166.708-15.098
		c-5.216,0.516-10.135,1.002-14.684,1.412c-39.466,3.568-64.234,20.688-72.905,27.73c-11.339-1.974-43.267-6.394-69.107,0.925
		c-24.959,7.07-33.22,31.38-34.599,47.354c-6.547,4.169-14.648,14.816-20.756,40.765c-0.351,1.487-0.74,3.121-1.161,4.893
		c-11.27,47.324-41.211,173.032,14.795,213.877c16.074,11.722,29.275,15.496,39.609,15.496c12.429,0,20.712-5.458,24.855-9.106
		c13.053-11.494,17.321-32.382,9.514-46.563c-1.929-3.502-6.06-5.164-9.875-3.969l-16.786,5.254
		c-3.659,1.145-6.079,4.623-5.883,8.452c0.099,1.925-0.476,5.599-1.568,6.748c-0.053,0.055-0.133,0.14-0.518,0.168
		c-0.89-0.214-5.788-1.686-10.443-8.76c-14.987-22.768-6.925-68.892,0.219-97.41c12.587-3.213,42.842-12.601,54.76-30.951
		l14.486-1.62c0.64-0.072,1.252-0.22,1.836-0.424c3.227,5.622,10.12,11.945,24.735,10.6c2.985-0.275,5.545-0.59,7.746-0.93
		L200,390.585c-24.452,18.603-19.958,35.104-19.332,37.013c1.133,3.451,4.354,5.783,7.985,5.783h67.22
		c4.642,0,8.406-3.764,8.406-8.406v-80.174c3.692-8.105,7.368-17.736,10.805-27.587c19.582,5.543,36.893,7.4,51.281,7.4
		c18.629,0,32.354-3.103,39.782-5.319c4.809,6.04,8.967,10.727,11.437,13.415v60.321c-12.322,12.397-18.859,28.031-19.15,28.737
		c-1.069,2.593-0.776,5.55,0.785,7.881c1.56,2.331,4.18,3.731,6.986,3.731h74.196c2.595,0,5.043-1.198,6.635-3.246
		c1.593-2.048,2.15-4.716,1.512-7.231c-0.161-0.632-15.631-64.235,23.218-147.766C505.389,202.843,486.879,141.324,418.233,97.234z"
		/>
</g>
<g>
	<path style="fill:#666568;" d="M503.569,319.541c-0.027,0-0.053,0-0.08,0c-4.642-0.043-8.371-3.841-8.327-8.483
		c0.939-101.895-24.233-124.332-24.488-124.529c-3.666-2.849-4.327-8.13-1.478-11.795c2.849-3.666,8.131-4.328,11.795-1.478
		c3.278,2.547,31.995,28.064,30.982,137.958C511.931,315.828,508.175,319.541,503.569,319.541z"/>
	<path style="fill:#666568;" d="M418.233,97.234c-27.874-17.903-69.483-20.93-108.765-19.517
		c29.094,1.199,57.169,6.298,77.752,19.517c68.645,44.091,87.157,105.61,53.532,177.906
		c-38.849,83.53-23.378,147.133-23.218,147.766c0.639,2.515,0.081,5.184-1.512,7.231c-1.593,2.048-4.041,3.246-6.635,3.246h31.012
		c2.595,0,5.043-1.198,6.635-3.246c1.593-2.048,2.15-4.716,1.512-7.231c-0.161-0.632-15.631-64.235,23.218-147.766
		C505.389,202.843,486.879,141.324,418.233,97.234z"/>
	<path style="fill:#666568;" d="M137.037,258.448l14.44-1.614c0.577-0.065,1.127-0.198,1.659-0.371l-15.453-92.041
		C137.683,164.421,131.311,229,137.037,258.448z"/>
	<path style="fill:#666568;" d="M53.334,282.387C18.409,396.611,86.855,395.573,92.456,395.573c-0.89-0.214-5.788-1.686-10.443-8.76
		c-14.987-22.768-6.925-68.892,0.219-97.41c0.236-0.06,0.492-0.128,0.741-0.193c0.398-2.14,0.81-4.313,1.247-6.54
		C71.092,283.06,53.334,282.387,53.334,282.387z"/>
</g>
<path style="fill:#D9D9DB;" d="M83.582,244.176c-3.013-2.551-7.395-2.662-10.532-0.267c-19.378,14.793-68.147,41.18-68.637,41.444
	c-3.255,1.757-4.978,5.436-4.245,9.061c0.733,3.626,3.749,6.346,7.431,6.701c4.058,0.392,8.074,0.566,12.018,0.566
	c30.274,0,55.97-10.291,58.808-11.466c13.349-4.909,17.35-12.591,18.352-18.184C99.296,257.951,85.197,245.545,83.582,244.176z"/>
<path style="fill:#666568;" d="M185.631,266.104c0.053-0.008,0.111-0.016,0.164-0.024l2.995,26.246
	c19.249-7.971,53.165-33.468,59.903-56.301c6.611-29.099,0.323-46.666-9.68-57.281c1.845,9.237,1.696,20.677-1.528,34.866
	C231.947,232.375,202.702,255.932,185.631,266.104z"/>
<path style="fill:#8A8990;" d="M236.652,153.699c-17.338-21.719-46.753-21.969-47.997-21.969c-4.631,0-8.374,3.746-8.39,8.375
	c-0.004,1.302,0.297,2.533,0.824,3.635l-35.819,17.066c-1.422-2.982-4.538-4.964-8.053-4.778c-4.634,0.257-8.184,4.223-7.927,8.857
	c0.052,0.93,1.305,23.043,5.164,46.974c7.453,46.224,17.759,56.825,24.863,60.777c3.831,2.131,8.416,3.192,13.545,3.192
	c6.072,0,12.908-1.487,20.152-4.449c20.482-8.373,44.669-28.747,52.531-55.391c0.05-0.17,0.095-0.343,0.134-0.517
	C251.603,189.406,248.566,168.623,236.652,153.699z"/>
<path style="fill:#666568;" d="M290.44,268.557c0.657-2.034-2.005-3.451-3.323-1.769c-14.077,17.971-43.16,53.758-53.658,76.168
	v90.427h22.415c4.642,0,8.406-3.763,8.406-8.406v-80.174c3.692-8.105,7.368-17.736,10.805-27.587
	c0.129,0.037,0.254,0.068,0.382,0.104C280.713,299.027,286.721,280.065,290.44,268.557z"/>
<path style="fill:#2B2B2B;" d="M88.465,214.723c-5.383,0-9.762-4.371-9.762-9.744s4.379-9.744,9.762-9.744s9.762,4.371,9.762,9.744
	C98.227,210.351,93.848,214.723,88.465,214.723z"/>
<g>
</g>
<g>
</g>
<g>
</g>
<g>
</g>
<g>
</g>
<g>
</g>
<g>
</g>
<g>
</g>
<g>
</g>
<g>
</g>
<g>
</g>
<g>
</g>
<g>
</g>
<g>
</g>
<g>
</g>
</svg>
