<?xml version="1.0" encoding="iso-8859-1"?>
<!-- Generator: Adobe Illustrator 19.0.0, SVG Export Plug-In . SVG Version: 6.00 Build 0)  -->
<svg version="1.1" id="Capa_1" xmlns="http://www.w3.org/2000/svg" xmlns:xlink="http://www.w3.org/1999/xlink" x="0px" y="0px"
	 viewBox="0 0 511.999 511.999" style="enable-background:new 0 0 511.999 511.999;" xml:space="preserve">
<path style="fill:#F4B576;" d="M479.845,320.868c-9.47,0-18.717-3.957-26.088-11.175c-9.991-9.783-15.792-24.491-15.917-40.352
	c-0.034-4.314,3.436-7.839,7.75-7.873c0.021,0,0.042,0,0.063,0c4.285,0,7.776,3.457,7.81,7.75
	c0.091,11.561,4.287,22.519,11.224,29.313c3.179,3.112,8.386,6.808,15.398,6.713c0.035-0.001,0.07-0.001,0.104-0.001
	c4.266,0,7.753,3.43,7.809,7.709c0.056,4.314-3.395,7.856-7.709,7.913C480.143,320.867,479.993,320.868,479.845,320.868z"/>
<g>
	<path style="fill:#D38A6A;" d="M113.983,454.174c0,3.92,3.403,7.099,7.602,7.099h51.886c4.198,0,7.602-3.178,7.602-7.098v-55.55
		c0-54.561,47.366-98.791,105.795-98.791H113.983V454.174z"/>
	<path style="fill:#D38A6A;" d="M286.867,299.834c58.429,0,89.971,44.23,89.971,98.791v34.526H365.08
		c-12.393,0-22.439,10.046-22.439,22.439v5.683h41.798h11.32h40.566c4.198,0,7.602-3.178,7.602-7.098v-154.34h-157.06V299.834z"/>
</g>
<path style="fill:#F4B576;" d="M355.979,175.742h-18.072h-79.372c-8.839,0-17.408-3.046-24.264-8.625l-10.232-8.326L106.754,294.54
	v138.612h-0.817c-12.393,0-22.439,10.046-22.439,22.439v5.683h30.06h23.058h9.528c3.758,0,6.805-3.178,6.805-7.098v-14.588
	c0-77.183,59.979-139.753,133.967-139.753l0,0c71.92,0,114.772,59.122,117.997,133.317h-5.462
	c-12.393,0-22.439,10.046-22.439,22.439v5.683h34.853h18.266h16.63c3.758,0,6.804-3.178,6.804-7.099V273.329l0,0
	C453.566,219.434,409.875,175.742,355.979,175.742z"/>
<g>
	<path style="fill:#F2A966;" d="M220.346,175.742h38.19c-8.839,0-17.408-3.046-24.264-8.625l-10.232-8.326l-13.537,15.668
		C213.694,175.304,217,175.742,220.346,175.742z"/>
	<path style="fill:#F2A966;" d="M355.979,175.742h-18.072h-20.118c53.895,0,97.586,43.691,97.586,97.586l0,0v180.845
		c0,3.92-3.047,7.099-6.804,7.099h3.294h18.266h16.63c3.758,0,6.804-3.178,6.804-7.099V273.329l0,0
		C453.566,219.434,409.875,175.742,355.979,175.742z"/>
</g>
<path style="fill:#D38A6A;" d="M48.576,196.943c-0.067,5.53,0.187,53.826,40.758,85.444c38.945,30.351,83.869,21.042,96.811,17.44
	c1.429-0.398,1.777-2.248,0.609-3.162c-7.047-5.515-16.06-14.554-18.715-27.262c-7.648-36.608,47.138-57.404,56.002-110.613
	c5.229-31.387-6.355-69.052-32.635-89.573C151.976,38.43,83.067,49.043,67.341,79.343c-2.583,4.976-3.507,10.051-3.691,14.534"/>
<path style="fill:#F2A966;" d="M202.743,301.505c1.292-6.491-1.145-13.059-6.36-17.141c-7.344-5.748-11.735-11.856-13.051-18.154
	c-2.224-10.645,5.434-20.371,19.16-36.646c12.888-15.28,28.632-33.949,35.228-59.954c-1.188-0.766-2.342-1.592-3.448-2.491
	l-10.232-8.326l-61.196,70.828c-8.298,12.526-13.589,26.274-10.099,42.979c1.147,5.489,3.148,10.741,5.99,15.734
	c-11.692,0.491-26.079-0.838-40.594-6.975l-11.388,13.181v15.935c16.845,6.969,33.416,9.148,47.539,9.147
	c16.528-0.001,29.707-2.981,36.036-4.742C196.697,313.109,201.453,307.984,202.743,301.505z"/>
<g>
	<path style="fill:#D17461;" d="M48.576,196.943c-0.067,5.53,0.187,53.826,40.758,85.444c38.945,30.351,83.869,21.042,96.811,17.44
		c1.429-0.398,1.777-2.248,0.609-3.162c-7.047-5.515-16.06-14.554-18.715-27.262c-7.648-36.608,47.138-57.404,56.002-110.613
		c5.229-31.387-6.355-69.052-32.635-89.573C151.976,38.43,83.067,49.043,67.341,79.343c-2.583,4.976-3.507,10.051-3.691,14.534"/>
	<path style="fill:#D17461;" d="M191.405,69.219c-21.449-16.749-51.62-21.242-77.21-16.983c14.619,2.439,28.793,7.913,40.409,16.983
		c26.28,20.521,37.864,58.185,32.635,89.573c-8.864,53.208-63.65,74.004-56.002,110.613c2.655,12.708,11.669,21.747,18.715,27.262
		c1.168,0.914,0.82,2.764-0.609,3.162c-2.914,0.811-7.46,1.909-13.183,2.781c22.74,3.626,42.18-0.609,49.984-2.781
		c1.429-0.398,1.777-2.248,0.609-3.162c-7.047-5.515-16.06-14.554-18.715-27.262c-7.648-36.608,47.138-57.404,56.002-110.613
		C229.269,127.404,217.685,89.74,191.405,69.219z"/>
</g>
<path style="fill:#F4B576;" d="M68.764,89.702L37.74,115.023c-2.861,2.335-4.964,5.468-6.041,9l-1.45,4.754
	c-1.034,3.39-3.014,6.415-5.707,8.72l-19.33,16.545c-4.43,3.792-6.242,9.82-4.635,15.426l3.896,13.592
	c3.07,10.71,14.45,16.697,25.015,13.162l22.679-7.591c2.45-0.82,5.13-0.594,7.408,0.626l0,0c2.804-0.03,21.057-0.527,33.85-15.623
	c9.887-11.667,10.402-24.841,10.415-28.642c8.304-12.054,8.46-27.969,0.424-40.014C96.548,93.415,82.615,87.415,68.764,89.702z"/>
<circle style="fill:#555566;" cx="50.539" cy="135.96" r="9.04"/>
<path style="fill:#D38A6A;" d="M495.55,333.122c-1.782,0-3.663-0.176-5.555-0.632c-9.445-2.276-13.456-7.982-15.169-10.419
	c-0.047-0.068-0.093-0.132-0.135-0.194c-2.637-2.605-3.116-6.803-0.946-9.968c0.063-0.092,0.127-0.182,0.193-0.27
	c-0.074-0.326-0.128-0.661-0.161-1.003c-0.408-4.295,2.743-8.108,7.038-8.515l0.126-0.016c6.574-0.803,12.914,0.645,18.845,4.3
	c4.741,2.921,8.078,6.556,10.043,9.092c2.081,2.684,2.712,6.218,1.689,9.451c-1.022,3.23-3.568,5.754-6.81,6.751
	C502.7,332.318,499.353,333.122,495.55,333.122z M475.764,322.763c0.003,0.002,0.006,0.004,0.009,0.006
	C475.77,322.767,475.767,322.766,475.764,322.763z"/>
<path style="fill:#CC5E58;" d="M107.656,81.963c-0.101,0.007-0.202,0.014-0.303,0.021c-15.009,1.116-20.535,16.55-21.05,18.382
	l14.59,21.718c2.348,0.34,17.907-0.804,25.167-12.264c1.111-1.754,1.748-3.87,2.07-6.112
	C129.853,91.708,119.752,81.16,107.656,81.963z"/>
<g>
	<path style="fill:#F2A966;" d="M100.756,96.775c-0.05,0.003-0.101,0.007-0.151,0.011c-7.505,0.558-10.267,8.275-10.525,9.191
		l7.295,10.859c1.174,0.17,8.954-0.402,12.583-6.132c0.555-0.877,0.874-1.935,1.035-3.056
		C111.854,101.648,106.804,96.373,100.756,96.775z"/>
	<path style="fill:#F2A966;" d="M26.061,171.725c-1.637,1.273-14.828,5.339-22.638,7.676l1.049,3.66
		c0.162,0.566,0.36,1.111,0.567,1.649c7.698-2.826,21.678-7.925,23.365-8.299C30.747,175.891,28.404,169.901,26.061,171.725z"/>
</g>
<path style="fill:#FFDBBB;" d="M300.374,280.056H262.97c-24.222,0-44.239,17.961-47.485,41.29
	c20.676-13.622,45.169-21.512,71.431-21.512l0,0c23.158,0,43.296,6.138,60.073,16.927
	C341.926,295.706,322.983,280.056,300.374,280.056z"/>
<g>
</g>
<g>
</g>
<g>
</g>
<g>
</g>
<g>
</g>
<g>
</g>
<g>
</g>
<g>
</g>
<g>
</g>
<g>
</g>
<g>
</g>
<g>
</g>
<g>
</g>
<g>
</g>
<g>
</g>
</svg>
