<?xml version="1.0" encoding="iso-8859-1"?>
<!-- Generator: Adobe Illustrator 19.0.0, SVG Export Plug-In . SVG Version: 6.00 Build 0)  -->
<svg version="1.1" id="Capa_1" xmlns="http://www.w3.org/2000/svg" xmlns:xlink="http://www.w3.org/1999/xlink" x="0px" y="0px"
	 viewBox="0 0 512 512" style="enable-background:new 0 0 512 512;" xml:space="preserve">
<path style="fill:#E6646E;" d="M448.162,176.111c-3.096,0-6.056-1.775-7.421-4.779c-1.862-4.095-0.052-8.926,4.047-10.788
	c8.727-3.967,16.765-9.065,23.43-14.218c-0.275-0.31-0.545-0.629-0.812-0.943c-6.717-7.939-9.51-18.742-7.115-27.525
	c1.93-7.087,7.035-12.407,14.381-14.974c7.998-2.817,16.602-0.963,22.451,4.815c6.092,6.025,7.939,14.926,4.942,23.82
	c-1.528,4.516-5.046,9.705-9.92,15.01c8.118,6.466,15.551,10.684,15.662,10.744c3.936,2.189,5.352,7.151,3.164,11.082
	c-2.193,3.943-7.155,5.356-11.082,3.164c-0.139-0.076-9.713-5.448-19.821-13.816c-8.448,6.781-18.436,13.084-28.539,17.676
	C450.438,175.876,449.292,176.111,448.162,176.111z M482.153,117.898c-0.68,0-1.389,0.119-2.097,0.37
	c-2.925,1.023-3.697,2.606-4.043,3.876c-0.959,3.526,0.688,8.993,3.836,12.71c0.151,0.183,0.306,0.362,0.462,0.541
	c3.335-3.625,5.543-6.821,6.311-9.089c0.975-2.893,0.625-5.452-0.959-7.015C484.735,118.375,483.498,117.898,482.153,117.898z"/>
<path style="fill:#FFAAB4;" d="M468.177,299.009c17.326-21.031,39.799-64.733,11.223-108.637
	c-74.705-114.774-296.441-49.747-367.071-29.882c-9.91,2.787-30.975,9.844-43.016,13.929c-5.333,1.809-9.381,5.899-11.865,10.953
	c-10.655,21.677-39.986,37.166-52.777,43.089c-3.528,1.634-5.368,5.573-4.425,9.345l5.185,20.74
	c0.802,3.209,3.428,5.626,6.703,6.088c2.306,0.325,5.307,0.638,8.586,0.85c4.444,27.681,114.869,41.528,114.869,41.528
	l19.865,67.404l-7.85,27.737c-1.172,4.142,1.939,8.257,6.244,8.257h18.188c3.316,0,6.098-2.5,6.452-5.796l6.555-61.024
	c0.936-8.714,0.79-17.462-0.176-26.126c55.001,15.388,168.753,18.216,232.289,2.761l18.101,17.178l6.112,41.549l-14.701,21.28
	c-2.974,4.305,0.107,10.178,5.339,10.178h17.399c2.884,0,5.422-1.903,6.23-4.672l21.537-73.799c1.655-5.672,1.2-11.753-1.281-17.116
	L468.177,299.009z"/>
<path style="fill:#FF96A0;" d="M86.181,137.555c-10.453,23.021-7.701,40.109-5.278,47.989c0.821,2.669,3.772,3.979,6.318,2.833
	l31.818-14.318c2.434-1.095,3.469-4.092,2.188-6.433c-10.852-19.829-22.438-28.623-28.582-32.17
	C90.323,134.115,87.289,135.114,86.181,137.555z"/>
<path style="fill:#4B3F4E;" d="M67.415,227.046c-4.501,0-8.189-3.649-8.189-8.15c0-4.501,3.609-8.15,8.11-8.15h0.08
	c4.501,0,8.15,3.649,8.15,8.15C75.565,223.397,71.916,227.046,67.415,227.046z"/>
<path style="fill:#EC757F;" d="M49.235,259.004c-5.105,2.129-14.195,4.981-28.515,6.481c0.865,5.39,5.781,10.248,13.085,14.589
	c9.925-1.769,17.112-4.128,22.05-6.216c4.771-2.018,6.285-7.996,3.058-12.048l-0.426-0.535
	C56.278,258.503,52.506,257.64,49.235,259.004z"/>
<path style="fill:#E6646E;" d="M4.67,228.462c-3.528,1.634-5.368,5.573-4.425,9.345l5.185,20.741
	c0.802,3.209,3.428,5.626,6.703,6.088c2.306,0.325,5.307,0.638,8.586,0.85l-9.315-40.32C8.876,226.465,6.579,227.578,4.67,228.462z"
	/>
<g>
	<path style="fill:#FF96A0;" d="M417.154,320.227l-11.711-10.166c-4.475-3.885-10.408-5.605-16.291-4.898
		c-88.56,10.641-166.461-5.273-195.318-12.44c-5.801-1.441-11.212,3.325-10.589,9.27l1.62,15.472
		C239.866,332.854,353.618,335.681,417.154,320.227z"/>
	<path style="fill:#FF96A0;" d="M47.196,286.522c33.968,13.652,88.392,20.491,88.392,20.491l-2.943-10.545
		c-1.777-6.369-7.897-10.496-14.459-9.678C103.035,288.679,74.82,290.945,47.196,286.522z"/>
</g>
<g>
	<path style="fill:#AA505A;" d="M432.709,391.487l-6.042,8.747c-2.974,4.304,0.107,10.178,5.339,10.178h17.399
		c2.884,0,5.422-1.903,6.23-4.672l4.159-14.253L432.709,391.487L432.709,391.487z"/>
	<path style="fill:#AA505A;" d="M153.847,410.411h18.188c3.316,0,6.098-2.5,6.452-5.796l1.41-13.128h-29.275l-3.019,10.668
		C146.431,406.297,149.543,410.411,153.847,410.411z"/>
</g>
<g>
</g>
<g>
</g>
<g>
</g>
<g>
</g>
<g>
</g>
<g>
</g>
<g>
</g>
<g>
</g>
<g>
</g>
<g>
</g>
<g>
</g>
<g>
</g>
<g>
</g>
<g>
</g>
<g>
</g>
</svg>
