<?xml version="1.0" encoding="iso-8859-1"?>
<!-- Generator: Adobe Illustrator 18.0.0, SVG Export Plug-In . SVG Version: 6.00 Build 0)  -->
<!DOCTYPE svg PUBLIC "-//W3C//DTD SVG 1.1//EN" "http://www.w3.org/Graphics/SVG/1.1/DTD/svg11.dtd">
<svg version="1.1" id="Capa_1" xmlns="http://www.w3.org/2000/svg" xmlns:xlink="http://www.w3.org/1999/xlink" x="0px" y="0px"
	 viewBox="0 0 464.752 464.752" style="enable-background:new 0 0 464.752 464.752;" xml:space="preserve">
<g>
	<path style="fill:#269DC6;" d="M464.576,209.859c-1.067,8.257-2.667,16.337-4.779,24.216
		c-21.227,79.283-93.563,137.65-179.525,137.65c-9.935,0-19.682-0.778-29.184-2.278l-44.064-12.714
		c-21.46-9.202-40.842-22.349-57.223-38.508v-0.011c-34.174-33.685-55.356-80.527-55.356-132.316h349.126
		C456.363,185.898,466.199,197.167,464.576,209.859z"/>
	<path style="fill:#4D4D4D;" d="M360.124,223.825c-1.971,0-3.91-0.8-5.301-2.2c-0.35-0.34-0.659-0.73-0.939-1.14
		c-0.271-0.4-0.5-0.84-0.69-1.29c-0.18-0.45-0.33-0.93-0.42-1.4c-0.1-0.49-0.149-0.98-0.149-1.47c0-0.49,0.05-0.98,0.149-1.46
		c0.09-0.48,0.24-0.96,0.42-1.41c0.19-0.45,0.42-0.89,0.69-1.29c0.28-0.41,0.59-0.8,0.939-1.14c1.391-1.4,3.33-2.2,5.301-2.2
		c1.979,0,3.91,0.8,5.3,2.2c0.35,0.34,0.66,0.73,0.939,1.14c0.271,0.4,0.5,0.84,0.69,1.29c0.18,0.45,0.33,0.93,0.42,1.41
		c0.1,0.48,0.15,0.97,0.15,1.46c0,0.49-0.051,0.98-0.15,1.47c-0.09,0.47-0.24,0.95-0.42,1.4c-0.19,0.45-0.42,0.89-0.69,1.29
		c-0.279,0.41-0.59,0.8-0.939,1.14c-0.34,0.35-0.72,0.66-1.14,0.94c-0.4,0.27-0.841,0.5-1.29,0.69c-0.45,0.18-0.931,0.33-1.4,0.42
		C361.103,223.774,360.613,223.825,360.124,223.825z"/>
	<g>
		<path style="fill:#269DC6;" d="M0,195.262L0,195.262c28.231-28.231,74.004-28.231,102.235,0l0,0l0,0
			C74.004,223.494,28.231,223.494,0,195.262L0,195.262z"/>
		<path style="fill:#269DC6;" d="M102.235,93.027L102.235,93.027c28.231,28.231,28.231,74.004,0,102.235l0,0l0,0
			C74.004,167.031,74.004,121.259,102.235,93.027L102.235,93.027z"/>
	</g>
	<path style="fill:#51CAF4;" d="M459.798,234.075c-21.227,79.283-93.563,137.65-179.525,137.65c-9.935,0-19.682-0.778-29.184-2.278
		l-44.064-12.714c-21.46-9.202-40.842-22.349-57.223-38.508v-0.011l34.629-17.737c85.217-43.642,179.603-66.413,275.356-66.413
		L459.798,234.075z"/>
	<path style="fill:#269DC6;" d="M184.348,276.217L184.348,276.217L184.348,276.217c0,39.981-32.411,72.392-72.392,72.392h0v0
		c0-23.417,11.118-44.236,28.364-57.468"/>
</g>
<g>
</g>
<g>
</g>
<g>
</g>
<g>
</g>
<g>
</g>
<g>
</g>
<g>
</g>
<g>
</g>
<g>
</g>
<g>
</g>
<g>
</g>
<g>
</g>
<g>
</g>
<g>
</g>
<g>
</g>
</svg>
